<?xml version="1.0" standalone="no"?>
<!DOCTYPE svg PUBLIC "-//W3C//DTD SVG 20010904//EN"
 "http://www.w3.org/TR/2001/REC-SVG-20010904/DTD/svg10.dtd">
<svg version="1.0" xmlns="http://www.w3.org/2000/svg"
 width="2083.000000pt" height="2083.000000pt" viewBox="0 0 2083.000000 2083.000000"
 preserveAspectRatio="xMidYMid meet">
<metadata>
Created by potrace 1.11, written by Peter Selinger 2001-2013
</metadata>
<g transform="translate(0.000000,2083.000000) scale(0.100000,-0.100000)"
fill="#000000" stroke="none">
<path d="M6268 17585 c-2 -2 -46 -6 -98 -9 -371 -28 -746 -133 -1085 -306
-138 -70 -288 -158 -293 -172 -2 -4 -8 -8 -13 -8 -8 0 -80 -48 -129 -87 -429
-333 -743 -732 -945 -1203 -45 -105 -135 -367 -135 -396 0 -11 -3 -24 -7 -28
-4 -3 -8 -12 -9 -19 -1 -7 -7 -32 -12 -57 -10 -42 -42 -225 -58 -335 -5 -27
-9 -1512 -11 -3300 l-3 -3250 -40 -115 c-21 -63 -89 -257 -150 -430 -61 -173
-113 -319 -114 -325 -2 -5 -6 -17 -9 -25 -11 -30 -79 -225 -81 -235 -2 -5 -6
-17 -9 -25 -3 -8 -24 -67 -46 -130 -47 -137 -166 -480 -221 -635 -90 -258
-182 -521 -235 -675 -31 -91 -65 -187 -75 -215 -26 -69 -214 -609 -251 -720
-17 -49 -34 -99 -39 -110 -5 -11 -30 -78 -54 -150 -24 -71 -74 -215 -111 -320
-97 -277 -136 -389 -204 -585 -111 -322 -161 -461 -166 -471 -4 -5 -5 -9 -3
-9 2 0 217 74 268 93 8 3 200 69 425 147 226 77 433 150 460 160 28 10 111 40
185 65 74 26 198 68 275 94 226 78 636 220 690 240 28 10 73 26 100 35 28 10
158 55 290 101 132 46 330 115 440 153 110 39 214 75 230 81 17 6 129 45 250
87 121 42 310 108 420 146 110 38 211 73 225 78 51 17 487 168 545 189 33 12
105 37 160 56 55 19 138 47 185 64 l85 29 4100 0 c2255 0 4129 3 4165 6 36 4
82 9 103 11 20 3 56 7 80 10 289 37 615 139 902 282 761 381 1323 1077 1532
1898 27 109 29 114 37 171 4 22 8 46 11 54 2 8 6 31 9 50 6 51 15 119 23 165
9 59 11 7063 2 7175 -4 52 -11 113 -13 135 -3 22 -9 60 -12 85 -5 39 -27 151
-40 203 -2 9 -6 25 -8 35 -57 249 -179 553 -314 782 -384 654 -985 1128 -1702
1344 -91 27 -283 72 -340 80 -19 2 -46 7 -60 10 -14 3 -52 8 -85 12 -33 3 -73
8 -90 11 -27 5 -8922 13 -8927 8z m3924 -2710 c88 -23 152 -68 204 -145 53
-79 98 -193 125 -316 15 -74 15 -279 0 -359 -7 -33 -14 -71 -17 -84 -13 -62
-70 -183 -121 -252 -54 -75 -142 -131 -232 -146 -20 -3 -611 -6 -1313 -6
l-1278 0 -1 -26 c-1 -34 -1 -1570 0 -1597 l1 -22 763 0 c799 0 805 0 897 -45
122 -59 238 -252 255 -424 17 -161 10 -241 -32 -357 -73 -205 -162 -296 -325
-332 -13 -3 -368 -6 -790 -6 -555 -1 -768 -4 -769 -12 0 -6 -1 -576 -1 -1266
0 -828 -3 -1274 -10 -1310 -32 -168 -177 -285 -436 -351 -117 -30 -136 -32
-302 -33 -185 -1 -235 6 -365 45 -212 65 -341 165 -387 301 -14 41 -21 6270
-7 6362 28 188 190 320 469 380 100 21 3589 23 3672 1z m3503 3 c11 -3 52 -9
90 -12 71 -7 83 -9 165 -21 157 -23 243 -42 360 -81 375 -124 642 -352 806
-689 63 -129 112 -298 130 -440 3 -22 7 -46 10 -53 22 -68 22 -538 -1 -673 -2
-13 -6 -42 -9 -64 -4 -22 -8 -51 -11 -65 -2 -14 -7 -37 -9 -52 -18 -110 -98
-341 -159 -458 -35 -68 -117 -198 -142 -226 -5 -6 -17 -21 -25 -33 -48 -70
-209 -217 -303 -278 -38 -25 -44 -32 -30 -38 16 -5 153 -81 202 -110 53 -32
175 -133 234 -193 219 -222 368 -545 412 -892 4 -30 9 -64 11 -75 21 -111 21
-741 0 -850 -2 -11 -7 -49 -11 -85 -6 -51 -35 -208 -49 -265 -37 -144 -75
-243 -152 -399 -178 -353 -452 -600 -831 -746 -98 -38 -324 -95 -429 -109 -43
-6 -99 -14 -124 -17 -25 -4 -513 -9 -1085 -10 -884 -3 -1047 -1 -1086 12 -75
23 -140 74 -179 140 l-35 59 0 3255 c0 2731 2 3261 14 3294 27 78 117 148 226
177 33 8 1977 6 2010 -3z"/>
<path d="M12177 14212 c-9 -2 -17 -9 -18 -15 -2 -36 -4 -2144 -1 -2157 3 -14
82 -15 675 -14 370 0 695 3 722 7 28 3 75 9 105 13 212 23 449 114 579 220
167 137 265 355 299 664 9 91 9 402 -2 480 -18 139 -86 319 -154 410 -163 216
-362 323 -682 365 -25 3 -52 8 -60 10 -43 12 -316 18 -851 19 -327 0 -603 0
-612 -2z"/>
<path d="M12157 11384 c-6 -6 1 -2755 6 -2760 4 -4 321 -7 705 -6 607 0 792 4
864 17 9 2 38 7 65 11 70 10 228 58 307 94 84 37 215 123 277 182 73 67 130
145 181 243 40 79 87 200 78 200 -2 0 2 10 8 21 6 12 14 36 17 55 3 19 10 52
15 74 9 40 14 76 29 210 12 103 6 596 -8 695 -35 239 -106 436 -204 565 -120
158 -340 290 -577 347 -101 24 -100 24 -170 33 -30 4 -64 10 -75 12 -18 5
-1514 11 -1518 7z"/>
</g>
</svg>
