<svg xmlns="http://www.w3.org/2000/svg" xmlns:xlink="http://www.w3.org/1999/xlink" version="1.1" id="Layer_1" x="0px" y="0px" width="100%" height="100%" viewBox="0 0 137.3 47" xml:space="preserve" enable-background="new 0 0 137.3 47">
  <style type="text/css">
  .background {
    fill:rgba(255,255,255,0);
    webkit-transition: 0.35s all ease;
    -moz-transition: 0.35s all ease;
    -o-transition: 0.35s all ease;
    transition: 0.35s all ease;
  }
  .parent:hover > .background {
    fill:rgba(255,255,255,1);
    webkit-transition: 0.35s all ease;
    -moz-transition: 0.35s all ease;
    -o-transition: 0.35s all ease;
    transition: 0.35s all ease;
  }

  .parent:hover > .fat {
    fill:#000000;
    webkit-transition: 0.35s all ease;
    -moz-transition: 0.35s all ease;
    -o-transition: 0.35s all ease;
    transition: 0.35s all ease;
  }

  .parent:hover > .babble {
    fill: #000000;
    stroke: #000000;
    webkit-transition: 0.35s all ease;
    -moz-transition: 0.35s all ease;
    -o-transition: 0.35s all ease;
    transition: 0.35s all ease;
  }

  .outline {
    fill:rgba(255,255,255,1);
  }
	.fat {
    fill: #FFFFFF;
    webkit-transition: 0.35s all ease;
    -moz-transition: 0.35s all ease;
    -o-transition: 0.35s all ease;
    transition: 0.35s all ease;
  }
	.babble {
    fill: #FFFFFF;
    stroke: #FFFFFF;
    stroke-width:0.231;
    stroke-miterlimit:10;
    webkit-transition: 0.35s all ease;
    -moz-transition: 0.35s all ease;
    -o-transition: 0.35s all ease;
    transition: 0.35s all ease;
  }

  </style>
  <g class="parent">
    <path class="background" d="M15 28.4V14.5c0-3.1 2.5-5.6 5.6-5.6h101.8c3.1 0 5.6 2.5 5.6 5.6v14.6c0 3.1-2.5 5.6-5.6 5.6h-101L8.5 41 15 28.4z"/>
    <path class="outline" d="M122.4 9.8c2.6 0 4.7 2.1 4.7 4.7v14.6c0 2.6-2.1 4.7-4.7 4.7H21.6h-0.4l-0.4 0.2 -10.3 5 5.2-10 0.2-0.4v-0.4V14.5c0-2.6 2.1-4.7 4.7-4.7H122.4M122.4 8H20.6c-3.6 0-6.5 2.9-6.5 6.5v13.7L6.5 43l15.2-7.5h100.7c3.6 0 6.5-2.9 6.5-6.5V14.5C128.9 10.9 126 8 122.4 8L122.4 8z"/>
    <path class="fat" d="M25.6 15.3c0-0.3 0.1-0.6 0.4-0.7 0.3-0.2 0.6-0.2 1-0.2h7.2c0.3 0 0.6 0.1 0.8 0.4s0.2 0.6 0.2 0.9c0 0.4-0.1 0.7-0.2 1 -0.2 0.3-0.4 0.4-0.7 0.4h-5.4v3.5H32c0.3 0 0.6 0.1 0.7 0.4 0.2 0.3 0.2 0.6 0.2 0.9 0 0.3-0.1 0.6-0.2 0.8 -0.2 0.3-0.4 0.4-0.8 0.4h-3.1v5.4c0 0.3-0.2 0.6-0.5 0.8 -0.3 0.2-0.7 0.2-1.1 0.2 -0.4 0-0.8-0.1-1.1-0.2 -0.3-0.2-0.5-0.4-0.5-0.8V15.3z"/>
    <path class="fat" d="M35.8 29.5c-0.2 0-0.5 0-0.7-0.1 -0.2-0.1-0.5-0.2-0.7-0.3s-0.4-0.3-0.5-0.4c-0.1-0.2-0.2-0.3-0.2-0.5 0 0 0-0.1 0-0.2l3.9-12.7c0.1-0.4 0.4-0.6 0.8-0.8 0.4-0.2 0.9-0.3 1.3-0.3s0.9 0.1 1.3 0.3c0.4 0.2 0.7 0.5 0.8 0.8L45.8 28c0 0.1 0 0.2 0 0.2 0 0.2-0.1 0.4-0.2 0.5 -0.1 0.2-0.3 0.3-0.5 0.4 -0.2 0.1-0.4 0.2-0.7 0.3 -0.2 0.1-0.5 0.1-0.7 0.1 -0.3 0-0.5 0-0.7-0.1 -0.2-0.1-0.3-0.2-0.4-0.5l-0.7-2.6h-4.4l-0.7 2.6c-0.1 0.2-0.2 0.4-0.4 0.5C36.3 29.5 36 29.5 35.8 29.5zM41.3 23.8l-1.5-5.6 -1.5 5.6H41.3z"/>
    <path class="fat" d="M54.7 14.3c0.3 0 0.6 0.2 0.8 0.5 0.2 0.3 0.2 0.6 0.2 1 0 0.4-0.1 0.8-0.2 1 -0.2 0.3-0.4 0.4-0.7 0.4h-2.9v11.3c0 0.3-0.2 0.6-0.5 0.8 -0.3 0.2-0.7 0.2-1.1 0.2s-0.8-0.1-1.1-0.2c-0.3-0.2-0.5-0.4-0.5-0.8V17.2h-2.9c-0.3 0-0.6-0.1-0.7-0.4 -0.2-0.3-0.2-0.6-0.2-1 0-0.3 0.1-0.7 0.2-1s0.4-0.5 0.7-0.5H54.7z"/>
    <path class="babble" d="M58.9 15.4c0-0.2 0.1-0.3 0.2-0.4s0.3-0.1 0.4-0.1h3.3c0.6 0 1.1 0 1.6 0.1 0.5 0.1 0.9 0.3 1.3 0.5 0.4 0.3 0.7 0.6 0.9 1 0.2 0.4 0.3 1 0.3 1.7 0 0.8-0.2 1.5-0.5 2.1 -0.3 0.6-0.7 1-1.2 1.2 0.3 0.1 0.6 0.3 0.8 0.5 0.3 0.2 0.5 0.4 0.7 0.7 0.2 0.3 0.3 0.6 0.4 1 0.1 0.4 0.2 0.8 0.2 1.3v0.4c0 0.8-0.1 1.4-0.3 1.9 -0.2 0.5-0.5 1-0.8 1.3 -0.4 0.3-0.8 0.6-1.3 0.7 -0.5 0.1-1 0.2-1.6 0.2h-3.8c-0.2 0-0.3-0.1-0.4-0.2 -0.1-0.1-0.2-0.2-0.2-0.4V15.4zM60.2 21h2.6c0.9 0 1.6-0.2 2.1-0.6 0.4-0.4 0.7-1.1 0.7-2 0-0.5-0.1-0.8-0.2-1.1s-0.3-0.5-0.6-0.7c-0.2-0.2-0.5-0.3-0.9-0.4 -0.3-0.1-0.7-0.1-1.1-0.1h-2.5V21zM63.1 28.3c0.9 0 1.6-0.2 2.1-0.7 0.5-0.5 0.7-1.2 0.7-2.3V25c0-1-0.2-1.8-0.7-2.2s-1.2-0.6-2.1-0.6h-2.9v6.2H63.1z"/>
    <path class="babble" d="M69.3 29.5c-0.2 0-0.3-0.1-0.5-0.2 -0.2-0.1-0.2-0.2-0.2-0.4 0-0.1 0-0.1 0-0.1l4.2-13.6c0.1-0.2 0.2-0.3 0.3-0.3 0.1-0.1 0.3-0.1 0.5-0.1 0.2 0 0.4 0 0.5 0.1 0.1 0.1 0.2 0.2 0.3 0.3l4.2 13.6c0 0 0 0 0 0.1 0 0 0 0 0 0.1 0 0.2-0.1 0.3-0.3 0.4 -0.2 0.1-0.4 0.2-0.5 0.2 -0.3 0-0.4-0.1-0.5-0.3l-0.9-3.1h-5.5l-0.9 3.1c0 0.1-0.1 0.2-0.2 0.3S69.4 29.5 69.3 29.5zM76 24.9l-2.4-8.1 -2.4 8.1H76z"/>
    <path class="babble" d="M80.5 15.4c0-0.2 0.1-0.3 0.2-0.4s0.3-0.1 0.4-0.1h3.3c0.6 0 1.1 0 1.6 0.1 0.5 0.1 0.9 0.3 1.3 0.5 0.4 0.3 0.7 0.6 0.9 1 0.2 0.4 0.3 1 0.3 1.7 0 0.8-0.2 1.5-0.5 2.1 -0.3 0.6-0.7 1-1.2 1.2 0.3 0.1 0.6 0.3 0.8 0.5 0.3 0.2 0.5 0.4 0.7 0.7 0.2 0.3 0.3 0.6 0.4 1 0.1 0.4 0.2 0.8 0.2 1.3v0.4c0 0.8-0.1 1.4-0.3 1.9 -0.2 0.5-0.5 1-0.8 1.3 -0.4 0.3-0.8 0.6-1.3 0.7 -0.5 0.1-1 0.2-1.6 0.2h-3.8c-0.2 0-0.3-0.1-0.4-0.2 -0.1-0.1-0.2-0.2-0.2-0.4V15.4zM81.8 21h2.6c0.9 0 1.6-0.2 2.1-0.6 0.4-0.4 0.7-1.1 0.7-2 0-0.5-0.1-0.8-0.2-1.1s-0.3-0.5-0.6-0.7c-0.2-0.2-0.5-0.3-0.9-0.4s-0.7-0.1-1.1-0.1h-2.5V21zM84.7 28.3c0.9 0 1.6-0.2 2.1-0.7 0.5-0.5 0.7-1.2 0.7-2.3V25c0-1-0.2-1.8-0.7-2.2s-1.2-0.6-2.1-0.6h-2.9v6.2H84.7z"/>
    <path class="babble" d="M91.2 15.4c0-0.2 0.1-0.3 0.2-0.4s0.3-0.1 0.4-0.1h3.3c0.6 0 1.1 0 1.6 0.1 0.5 0.1 0.9 0.3 1.3 0.5 0.4 0.3 0.7 0.6 0.9 1 0.2 0.4 0.3 1 0.3 1.7 0 0.8-0.2 1.5-0.5 2.1 -0.3 0.6-0.7 1-1.2 1.2 0.3 0.1 0.6 0.3 0.8 0.5 0.3 0.2 0.5 0.4 0.7 0.7 0.2 0.3 0.3 0.6 0.4 1s0.2 0.8 0.2 1.3v0.4c0 0.8-0.1 1.4-0.3 1.9 -0.2 0.5-0.5 1-0.8 1.3 -0.4 0.3-0.8 0.6-1.3 0.7 -0.5 0.1-1 0.2-1.6 0.2h-3.8c-0.2 0-0.3-0.1-0.4-0.2 -0.1-0.1-0.2-0.2-0.2-0.4V15.4zM92.6 21h2.6c0.9 0 1.6-0.2 2.1-0.6 0.4-0.4 0.7-1.1 0.7-2 0-0.5-0.1-0.8-0.2-1.1s-0.3-0.5-0.6-0.7c-0.2-0.2-0.5-0.3-0.9-0.4 -0.3-0.1-0.7-0.1-1.1-0.1h-2.5V21zM95.5 28.3c0.9 0 1.6-0.2 2.1-0.7 0.5-0.5 0.7-1.2 0.7-2.3V25c0-1-0.2-1.8-0.7-2.2 -0.5-0.4-1.2-0.6-2.1-0.6h-2.9v6.2H95.5z"/>
    <path class="babble" d="M102.6 29.5c-0.1 0-0.3 0-0.4-0.1 -0.1-0.1-0.2-0.2-0.2-0.4V15.3c0-0.2 0.1-0.3 0.2-0.4 0.1-0.1 0.3-0.1 0.5-0.1 0.2 0 0.3 0 0.5 0.1 0.1 0.1 0.2 0.2 0.2 0.4v12.9h5.7c0.1 0 0.3 0.1 0.3 0.2s0.1 0.3 0.1 0.4c0 0.2 0 0.3-0.1 0.4s-0.2 0.2-0.3 0.2H102.6z"/>
    <path class="babble" d="M112.6 21.6h3.1c0.2 0 0.3 0.1 0.4 0.2 0.1 0.1 0.1 0.3 0.1 0.4 0 0.1 0 0.3-0.1 0.4 -0.1 0.1-0.2 0.2-0.4 0.2h-3.1v5.5h6.4c0.2 0 0.3 0.1 0.4 0.2 0.1 0.1 0.1 0.3 0.1 0.4 0 0.1 0 0.3-0.1 0.4s-0.2 0.2-0.4 0.2h-7.1c-0.1 0-0.3 0-0.4-0.1 -0.1-0.1-0.2-0.2-0.2-0.4V15.4c0-0.2 0.1-0.3 0.2-0.4s0.3-0.1 0.4-0.1h7.1c0.2 0 0.3 0.1 0.4 0.2 0.1 0.1 0.1 0.3 0.1 0.4 0 0.2 0 0.3-0.1 0.5 -0.1 0.1-0.2 0.2-0.4 0.2h-6.4V21.6z"/>
    <a xmlns="http://www.w3.org/2000/svg" id="anchor" xlink:href="../learn.html" xmlns:xlink="http://www.w3.org/1999/xlink" target="_top">
      <rect x="0" y="0" width="100%" height="100%" fill-opacity="0"/>
    </a>
  </g>
</svg>
