<?xml version="1.0" encoding="utf-8"?>
<!-- Generator: Adobe Illustrator 16.0.0, SVG Export Plug-In . SVG Version: 6.00 Build 0)  -->
<!DOCTYPE svg PUBLIC "-//W3C//DTD SVG 1.1//EN" "http://www.w3.org/Graphics/SVG/1.1/DTD/svg11.dtd">
<svg version="1.1" id="Layer_1" xmlns="http://www.w3.org/2000/svg" xmlns:xlink="http://www.w3.org/1999/xlink" x="0px" y="0px"
	 width="122.393px" height="34.504px" viewBox="0 0 122.393 34.504" enable-background="new 0 0 122.393 34.504"
	 xml:space="preserve">
<g>
	<g>
		<path fill="#FFFFFF" d="M116.021,1.567c2.649,0,4.806,2.155,4.806,4.805v14.416c0,2.649-2.156,4.805-4.806,4.805H14.957h-0.364
			l-0.326,0.16L3.57,31.005l5.372-10.396l0.175-0.339v-0.381V6.372c0-2.649,2.155-4.805,4.805-4.805H116.021 M116.021,0H13.922
			c-3.521,0-6.371,2.859-6.371,6.372v13.517L0,34.504l14.957-7.344h101.063c3.521,0,6.372-2.852,6.372-6.372V6.372
			C122.393,2.859,119.542,0,116.021,0L116.021,0z"/>
	</g>
	<g>
		<g>
			<path fill="#FFFFFF" d="M19.135,7.031c0-0.332,0.146-0.582,0.438-0.749s0.617-0.25,0.979-0.25h7.225
				c0.348,0,0.598,0.149,0.75,0.448s0.229,0.613,0.229,0.946c0,0.39-0.083,0.727-0.249,1.011c-0.167,0.284-0.409,0.426-0.729,0.426
				h-5.393v3.52h3.145c0.318,0,0.562,0.129,0.729,0.385c0.166,0.257,0.25,0.552,0.25,0.886c0,0.278-0.076,0.552-0.229,0.822
				s-0.402,0.406-0.749,0.406h-3.145v5.371c0,0.334-0.17,0.584-0.511,0.75c-0.34,0.167-0.711,0.25-1.113,0.25
				c-0.403,0-0.773-0.083-1.113-0.25c-0.341-0.166-0.511-0.416-0.511-0.75V7.031z"/>
			<path fill="#FFFFFF" d="M29.316,21.253c-0.222,0-0.454-0.034-0.697-0.104c-0.243-0.068-0.468-0.162-0.677-0.28
				c-0.208-0.118-0.379-0.258-0.51-0.417c-0.133-0.159-0.198-0.336-0.198-0.531c0-0.041,0.014-0.117,0.042-0.229L31.149,6.99
				c0.11-0.36,0.371-0.632,0.78-0.812c0.41-0.181,0.857-0.271,1.343-0.271c0.486,0,0.935,0.09,1.343,0.271
				c0.41,0.181,0.67,0.452,0.781,0.812l3.894,12.701c0.027,0.111,0.041,0.188,0.041,0.229c0,0.195-0.065,0.372-0.197,0.531
				s-0.302,0.299-0.51,0.417s-0.434,0.212-0.677,0.28c-0.243,0.07-0.476,0.104-0.697,0.104c-0.264,0-0.489-0.045-0.678-0.135
				c-0.187-0.091-0.315-0.247-0.385-0.469l-0.707-2.603h-4.394l-0.708,2.603c-0.07,0.222-0.198,0.378-0.386,0.469
				C29.806,21.208,29.581,21.253,29.316,21.253z M34.793,15.548l-1.521-5.58l-1.52,5.58H34.793z"/>
			<path fill="#FFFFFF" d="M48.244,6.032c0.347,0,0.596,0.152,0.749,0.458c0.152,0.306,0.229,0.632,0.229,0.979
				c0,0.403-0.083,0.75-0.249,1.041c-0.167,0.292-0.409,0.438-0.729,0.438H45.37v11.306c0,0.334-0.17,0.584-0.51,0.75
				c-0.341,0.167-0.712,0.25-1.114,0.25s-0.773-0.083-1.113-0.25c-0.341-0.166-0.511-0.416-0.511-0.75V8.947h-2.874
				c-0.318,0-0.562-0.146-0.728-0.438c-0.167-0.291-0.25-0.638-0.25-1.041c0-0.347,0.076-0.673,0.229-0.979s0.402-0.458,0.749-0.458
				H48.244z"/>
		</g>
		<g>
			<path fill="#FFFFFF" stroke="#FFFFFF" stroke-width="0.231" stroke-miterlimit="10" d="M52.41,7.108
				c0-0.174,0.063-0.301,0.19-0.381s0.263-0.12,0.41-0.12h3.286c0.561,0,1.089,0.044,1.582,0.13c0.494,0.088,0.93,0.258,1.303,0.512
				c0.374,0.254,0.668,0.601,0.882,1.041c0.213,0.441,0.32,1.016,0.32,1.724c0,0.841-0.157,1.546-0.471,2.113
				c-0.314,0.568-0.726,0.965-1.232,1.192c0.308,0.12,0.588,0.273,0.842,0.46c0.253,0.188,0.471,0.414,0.65,0.682
				c0.181,0.267,0.321,0.591,0.421,0.972c0.101,0.381,0.15,0.825,0.15,1.333v0.359c0,0.762-0.103,1.406-0.311,1.935
				c-0.207,0.527-0.487,0.951-0.841,1.271c-0.354,0.321-0.771,0.555-1.253,0.701c-0.48,0.147-1.001,0.221-1.562,0.221h-3.767
				c-0.187,0-0.334-0.051-0.44-0.15c-0.107-0.101-0.16-0.217-0.16-0.351V7.108z M53.712,12.738h2.625
				c0.921,0,1.605-0.191,2.054-0.571c0.447-0.381,0.671-1.052,0.671-2.014c0-0.454-0.07-0.831-0.211-1.132
				C58.711,8.721,58.517,8.48,58.27,8.3c-0.247-0.18-0.54-0.303-0.881-0.37s-0.718-0.1-1.132-0.1h-2.545V12.738z M56.617,20.03
				c0.882,0,1.569-0.233,2.063-0.7c0.494-0.468,0.741-1.223,0.741-2.265v-0.34c0-1.043-0.247-1.776-0.741-2.204
				s-1.182-0.642-2.063-0.642h-2.905v6.15H56.617z"/>
			<path fill="#FFFFFF" stroke="#FFFFFF" stroke-width="0.231" stroke-miterlimit="10" d="M62.848,21.253
				c-0.174,0-0.344-0.051-0.511-0.15c-0.167-0.101-0.25-0.237-0.25-0.411c0-0.066,0.007-0.112,0.02-0.14l4.188-13.604
				c0.053-0.16,0.152-0.276,0.3-0.35c0.146-0.074,0.308-0.11,0.48-0.11c0.187,0,0.354,0.04,0.501,0.12s0.247,0.193,0.301,0.34
				l4.167,13.604c0,0.027,0.004,0.047,0.011,0.06c0.006,0.014,0.01,0.034,0.01,0.061c0,0.16-0.087,0.297-0.261,0.411
				c-0.174,0.113-0.354,0.17-0.541,0.17c-0.254,0-0.421-0.113-0.501-0.341l-0.922-3.085h-5.549l-0.922,3.085
				c-0.027,0.12-0.091,0.207-0.19,0.261S62.969,21.253,62.848,21.253z M69.5,16.685l-2.425-8.073l-2.444,8.073H69.5z"/>
			<path fill="#FFFFFF" stroke="#FFFFFF" stroke-width="0.231" stroke-miterlimit="10" d="M74.007,7.108
				c0-0.174,0.063-0.301,0.19-0.381s0.265-0.12,0.411-0.12h3.286c0.561,0,1.088,0.044,1.582,0.13
				c0.494,0.088,0.929,0.258,1.303,0.512s0.668,0.601,0.882,1.041c0.214,0.441,0.32,1.016,0.32,1.724
				c0,0.841-0.157,1.546-0.472,2.113c-0.312,0.568-0.724,0.965-1.231,1.192c0.307,0.12,0.588,0.273,0.842,0.46
				c0.253,0.188,0.471,0.414,0.65,0.682c0.181,0.267,0.321,0.591,0.421,0.972c0.101,0.381,0.15,0.825,0.15,1.333v0.359
				c0,0.762-0.104,1.406-0.311,1.935c-0.207,0.527-0.487,0.951-0.842,1.271c-0.354,0.321-0.771,0.555-1.252,0.701
				c-0.48,0.147-1.002,0.221-1.562,0.221h-3.768c-0.188,0-0.334-0.051-0.44-0.15c-0.107-0.101-0.161-0.217-0.161-0.351V7.108z
				 M75.31,12.738h2.624c0.922,0,1.606-0.191,2.054-0.571c0.448-0.381,0.672-1.052,0.672-2.014c0-0.454-0.07-0.831-0.21-1.132
				C80.309,8.721,80.115,8.48,79.868,8.3c-0.247-0.18-0.542-0.303-0.882-0.37c-0.341-0.067-0.719-0.1-1.133-0.1H75.31V12.738z
				 M78.215,20.03c0.881,0,1.569-0.233,2.063-0.7c0.494-0.468,0.741-1.223,0.741-2.265v-0.34c0-1.043-0.247-1.776-0.741-2.204
				s-1.183-0.642-2.063-0.642H75.31v6.15H78.215z"/>
			<path fill="#FFFFFF" stroke="#FFFFFF" stroke-width="0.231" stroke-miterlimit="10" d="M84.786,7.108
				c0-0.174,0.063-0.301,0.19-0.381s0.264-0.12,0.411-0.12h3.285c0.561,0,1.089,0.044,1.583,0.13
				c0.493,0.088,0.928,0.258,1.302,0.512s0.668,0.601,0.882,1.041c0.214,0.441,0.32,1.016,0.32,1.724
				c0,0.841-0.156,1.546-0.471,2.113c-0.313,0.568-0.725,0.965-1.231,1.192c0.307,0.12,0.587,0.273,0.841,0.46
				c0.253,0.188,0.472,0.414,0.651,0.682c0.181,0.267,0.321,0.591,0.421,0.972s0.15,0.825,0.15,1.333v0.359
				c0,0.762-0.104,1.406-0.311,1.935c-0.207,0.527-0.488,0.951-0.842,1.271c-0.354,0.321-0.771,0.555-1.252,0.701
				c-0.481,0.147-1.002,0.221-1.562,0.221h-3.767c-0.188,0-0.334-0.051-0.44-0.15c-0.108-0.101-0.161-0.217-0.161-0.351V7.108z
				 M86.088,12.738h2.625c0.922,0,1.605-0.191,2.054-0.571c0.447-0.381,0.671-1.052,0.671-2.014c0-0.454-0.069-0.831-0.21-1.132
				S90.894,8.48,90.646,8.3c-0.247-0.18-0.541-0.303-0.882-0.37s-0.718-0.1-1.132-0.1h-2.545V12.738z M88.993,20.03
				c0.882,0,1.569-0.233,2.064-0.7c0.493-0.468,0.741-1.223,0.741-2.265v-0.34c0-1.043-0.248-1.776-0.741-2.204
				c-0.495-0.428-1.183-0.642-2.064-0.642h-2.905v6.15H88.993z"/>
			<path fill="#FFFFFF" stroke="#FFFFFF" stroke-width="0.231" stroke-miterlimit="10" d="M96.166,21.253
				c-0.147,0-0.284-0.044-0.411-0.131c-0.127-0.086-0.19-0.216-0.19-0.39V7.089c0-0.174,0.067-0.298,0.201-0.372
				c0.132-0.073,0.286-0.109,0.46-0.109c0.16,0,0.311,0.036,0.451,0.109c0.14,0.074,0.21,0.198,0.21,0.372V20.03h5.711
				c0.146,0,0.256,0.063,0.33,0.19c0.073,0.127,0.11,0.265,0.11,0.411c0,0.16-0.037,0.304-0.11,0.431
				c-0.074,0.127-0.184,0.19-0.33,0.19H96.166z"/>
			<path fill="#FFFFFF" stroke="#FFFFFF" stroke-width="0.231" stroke-miterlimit="10" d="M106.163,13.339h3.146
				c0.16,0,0.284,0.061,0.371,0.181s0.13,0.26,0.13,0.42c0,0.135-0.037,0.258-0.11,0.371c-0.073,0.114-0.203,0.171-0.391,0.171
				h-3.146v5.549h6.411c0.16,0,0.284,0.063,0.371,0.19s0.13,0.271,0.13,0.432c0,0.146-0.037,0.283-0.11,0.41
				c-0.074,0.127-0.203,0.19-0.391,0.19h-7.132c-0.147,0-0.284-0.044-0.411-0.131c-0.127-0.086-0.19-0.216-0.19-0.39V7.108
				c0-0.174,0.063-0.301,0.19-0.381s0.264-0.12,0.411-0.12h7.132c0.188,0,0.316,0.061,0.391,0.18c0.073,0.121,0.11,0.254,0.11,0.401
				c0,0.174-0.043,0.324-0.13,0.45c-0.087,0.128-0.211,0.191-0.371,0.191h-6.411V13.339z"/>
		</g>
	</g>
</g>
</svg>
