<svg xmlns="http://www.w3.org/2000/svg" xmlns:xlink="http://www.w3.org/1999/xlink" version="1.1" x="0px" y="0px" width="336px" height="336px" viewBox="0 0 336 336" enable-background="new 0 0 336 336" xml:space="preserve">
  <style>
    <!--default background color: #38AD97 -->
    <!--default foreground color: #41FABE -->
    .portrait {
      fill: #41FABE;
      webkit-transition: 0.35s all ease;
      -moz-transition: 0.35s all ease;
      -o-transition: 0.35s all ease;
      transition: 0.35s all ease;
    }

    .portrait-background {
      fill: #38AD97;
      webkit-transition: 0.35s all ease;
      -moz-transition: 0.35s all ease;
      -o-transition: 0.35s all ease;
      transition: 0.35s all ease;
    }

    .parent:hover > .portrait {
      fill: #38AD97;
      webkit-transition: 0.35s all ease;
      -moz-transition: 0.35s all ease;
      -o-transition: 0.35s all ease;
      transition: 0.35s all ease;
    }

    .parent:hover > .portrait-background {
      fill: #41FABE;
      webkit-transition: 0.35s all ease;
      -moz-transition: 0.35s all ease;
      -o-transition: 0.35s all ease;
      transition: 0.35s all ease;
    }

  </style>
  <g class = "parent" id="Layer_1">
    <rect class = "portrait-background" id="SVGID_7_" width="336" height="336"/>
    <path class = "portrait" clip-path="url(#SVGID_2_)" fill-rule="evenodd" clip-rule="evenodd" d="M303.662 446.334c-10.992 0-21.783 0-32.847 0 -0.496-2.468-1.05-4.876-1.456-7.31 -2.136-12.828-4.262-25.658-6.322-38.498 -0.41-2.564-0.568-5.174-0.758-7.77 -0.764-10.48-1.472-20.965-2.258-31.443 -0.123-1.648-0.443-3.297-0.838-4.906 -1.58-6.462-3.223-12.908-4.855-19.357 -0.046-0.181-0.228-0.328-0.568-0.795 -0.206 0.725-0.446 1.223-0.477 1.733 -0.457 7.578-0.884 15.159-1.318 22.739 -0.018 0.311 0.031 0.646-0.064 0.932 -1.414 4.262-0.057 8.268 1.392 12.139 2.855 7.628 3.331 15.619 4.081 23.585 0.438 4.653 1.201 9.307 1.211 13.962 0.008 3.604 0.613 6.979 1.538 10.396 0.514 1.896 0.838 3.886 0.921 5.846 0.262 6.23 0.191 12.492 2.825 18.352 -2.5 0.681-194.017 0.852-197.993 0.216 -0.49-3.361-0.227-6.728 0.451-10.094 0.775-3.862 1.689-7.709 2.213-11.607 1.083-8.081 3.087-15.888 5.818-23.571 2.787-7.84 5.188-15.817 7.657-23.766 1.819-5.859 3.446-11.777 5.224-17.649 0.833-2.751 0.943-5.481 0.518-8.32 -0.955-6.375-1.771-12.771-2.652-19.157 -0.04-0.285-0.157-0.559-0.201-0.712 -1.252 5.267-2.606 10.603-3.76 15.981 -0.543 2.532-0.977 5.146-0.984 7.727 -0.034 10.191-2.339 20.012-4.447 29.889 -3.459 16.2-9.5 31.438-16.921 46.168 -2.387 4.736-5.036 9.34-7.519 14.029 -0.488 0.924-1.059 1.436-2.152 1.433 -10.311-0.039-20.62-0.046-30.93-0.081 -0.284 0-0.566-0.209-1.002-0.38 0.601-6.188 1.077-12.395 1.824-18.567 2.191-18.088 4.941-36.094 9.279-53.803 1.904-7.775 4.283-15.438 6.6-23.105 3.103-10.271 6.047-20.57 7.349-31.26 0.075-0.62 0.146-1.242 0.179-1.865 0.125-2.461 0.099-2.583-2.313-3.23 -6.831-1.832-13.682-3.59-20.515-5.412 -1.473-0.393-2.904-0.934-4.604-1.486 0.704-2.197 1.231-4.09 1.912-5.926 5.424-14.619 10.728-29.277 15.519-44.123 3.259-10.099 6.962-20.053 10.419-30.088 2.215-6.428 5.923-11.832 10.803-16.528 1.246-1.199 2.207-2.766 3.057-4.297 2.906-5.233 6.851-9.378 12.129-12.265 2.648-1.447 5.145-3.176 7.814-4.578 5.152-2.709 10.398-5.234 15.565-7.915 2.858-1.483 5.628-3.14 8.447-4.698 5.724-3.166 11.511-6.225 17.157-9.522 2.467-1.441 4.779-3.22 6.92-5.118 1.283-1.138 2.213-2.736 3.092-4.248 0.928-1.595 2.053-2.422 3.984-2.382 3.207 0.066 5.648-2.013 6.213-5.215 0.36-2.046 0.588-4.128 0.698-6.202 0.478-8.939 0.963-17.879 1.269-26.824 0.062-1.813-0.369-3.762-1.05-5.457 -1.288-3.205-2.491-6.389-2.706-9.874 -0.023-0.382-0.276-0.75-0.503-1.331 -0.542 0.178-0.993 0.357-1.462 0.475 -2.514 0.629-3.869 0.107-5.39-1.973 -3.991-5.458-4.863-11.554-3.75-18.07 0.351-2.047 0.888-4.099 0.921-6.154 0.034-2.178 0.726-3.609 3.088-4.187 -0.171-0.889-0.332-1.669-0.47-2.452 -0.34-1.936-0.757-3.863-0.977-5.812 -0.188-1.662-0.303-3.211-1.548-4.592 -0.693-0.77-1.082-2.09-1.08-3.159 0.007-3.495 0.205-6.993 0.449-10.481 0.057-0.816 0.626-1.588 0.887-2.403 0.822-2.568 0.292-5.058-0.916-7.65 0.875 0 1.343 0 1.64 0 0.655-2.376 1.271-4.708 1.95-7.021 0.23-0.784 0.4-1.828 0.969-2.231 3.246-2.304 3.643-6.797 7.04-8.952 1.821-1.156 3.753-2.225 5.323-3.672 5.228-4.813 11.736-7.424 17.877-10.659 2.381-1.255 4.821-0.751 7.175 0.498 2.282 1.21 4.653 2.258 6.988 3.372 0.28 0.134 0.633 0.392 0.862 0.317 2.951-0.961 5.912 0.45 8.842-0.058 2.727-0.473 5.192-0.386 6.956 2.188 0.251 0.367 0.819 0.645 1.278 0.72 2.611 0.428 5.234 0.781 8.09 1.192 -0.232 2.609 1.925 2.423 3.459 2.892 0.167 0.252 0.373 0.421 0.379 0.597 0.124 3.17 1.352 5.309 4.831 5.739 1.089 0.134 2.128 0.813 3.146 1.33 2.616 1.327 3.152 2.728 2.134 6.095 1.128 0.328 2.253 0.655 3.411 0.991 0.259 0.647 0.354 1.741 0.85 1.972 1.94 0.902 1.689 2.429 0.944 3.659 -3.284 5.417-3.299 11.464-3.629 17.459 -0.066 1.198 0.141 2.411 0.182 3.617 0.021 0.612 0.158 1.334-0.1 1.827 -1.788 3.416-1.725 7.207-2.331 10.862 -0.148 0.899-0.411 1.789-0.695 2.659 -0.474 1.453-1.005 2.887-1.512 4.328 0.244-0.014 0.488-0.027 0.731-0.041 0.551 1.385 1.231 2.735 1.623 4.165 0.492 1.799 0.916 3.649 1.076 5.503 0.441 5.144-1.212 9.835-3.457 14.352 -0.555 1.113-1.198 2.193-1.89 3.228 -1.933 2.89-3.862 3.355-6.886 1.731 -0.355-0.191-0.71-0.383-1.278-0.688 -0.252 1.155-0.472 2.157-0.688 3.158 -0.439 2.033-0.66 4.146-1.354 6.088 -2.891 8.106-2.014 16.449-1.633 24.737 0.172 3.729 0.834 7.446 1.438 11.142 0.568 3.487 2.162 4.829 5.689 5.356 0.66 0.099 1.491 0.436 1.846 0.942 1.9 2.712 4.753 4.245 7.178 6.308 3.619 3.077 7.703 5.266 11.707 7.592 8.637 5.02 17.6 9.486 26.153 14.641 7.657 4.615 15.032 9.719 22.358 14.857 4.02 2.82 7.316 6.459 9.773 10.811 1.273 2.258 3.112 4.228 4.184 6.562 1.637 3.566 3.009 7.281 4.174 11.033 2.311 7.445 4.241 15.011 6.627 22.431 2.705 8.414 5.71 16.733 8.637 25.075 2.131 6.078 4.261 12.158 6.568 18.17 0.887 2.311 2.336 4.397 3.394 6.65 1.107 2.356 1.022 3.006-1.292 4.326 -3.789 2.162-7.619 4.338-11.652 5.962 -3.711 1.495-5.453 3.417-5.341 7.739 0.206 8.002-0.437 16.021-0.493 24.035 -0.021 2.99 0.526 5.997 0.965 8.975 0.771 5.241 1.693 10.459 2.482 15.697 0.789 5.246 1.396 10.521 2.253 15.756 1.217 7.43 1.235 14.925 1.53 22.413C306.535 417.189 305.773 431.608 303.662 446.334z"/>
    <a xmlns="http://www.w3.org/2000/svg" id="anchor" xlink:href="../../learn.html" xmlns:xlink="http://www.w3.org/1999/xlink" target="_top">
      <rect x="0" y="0" width="100%" height="100%" fill-opacity="0"/>
    </a>
  </g>
  <g id="grid" display="none"/>
</svg>
