<?xml version="1.0" encoding="utf-8"?>
<!-- Generator: Adobe Illustrator 16.0.4, SVG Export Plug-In . SVG Version: 6.00 Build 0)  -->
<!DOCTYPE svg PUBLIC "-//W3C//DTD SVG 1.1//EN" "http://www.w3.org/Graphics/SVG/1.1/DTD/svg11.dtd">
<svg version="1.1" id="Layer_1" xmlns="http://www.w3.org/2000/svg" xmlns:xlink="http://www.w3.org/1999/xlink" x="0px" y="0px"
	 width="250px" height="150px" viewBox="0 0 250 150" style="enable-background:new 0 0 250 150;" xml:space="preserve">
<g>
	<polygon style="opacity:0.8;fill:#FFFFFF;" points="224.115,121.565 224.115,142.123 241.343,142.123 244.684,142.123 
		244.684,121.565 	"/>
	<rect x="224.115" y="5.867" style="opacity:0.8;fill:#FFFFFF;" width="20.568" height="20.558"/>
	<rect x="145.368" y="5.918" style="opacity:0.8;fill:#FFFFFF;" width="20.563" height="20.558"/>
	<polygon style="opacity:0.8;fill:#FFFFFF;" points="101.724,5.903 101.724,5.877 98.818,5.877 98.818,26.461 101.724,26.461 
		101.724,26.477 119.418,26.477 119.418,5.903 	"/>
	<polygon style="opacity:0.8;fill:#FFFFFF;" points="7.316,5.877 7.316,26.44 12.035,26.44 12.035,26.461 27.913,26.461 
		27.913,5.877 	"/>
	<polygon style="opacity:0.8;fill:#FFFFFF;" points="12.035,121.54 12.035,121.565 7.332,121.565 7.332,142.123 27.913,142.123 
		27.913,121.54 	"/>
	<polygon style="fill:#FFFFFF;" points="224.115,121.565 183.973,74.01 224.115,26.425 224.115,5.867 207.587,5.861 151.874,72.742 
		151.874,75.243 207.587,142.139 224.115,142.123 	"/>
	<polygon style="fill:#FFFFFF;" points="119.418,5.903 119.418,26.477 119.418,99.417 54.532,5.877 27.913,5.877 27.913,26.461 
		27.913,121.54 27.913,142.123 52.517,142.123 52.517,43.704 107.028,121.54 121.438,142.123 145.368,142.123 145.368,26.477 
		145.368,5.918 	"/>
</g>
</svg>
