<?xml version="1.0" encoding="utf-8"?>
<!-- Generator: Adobe Illustrator 16.0.0, SVG Export Plug-In . SVG Version: 6.00 Build 0)  -->
<!DOCTYPE svg PUBLIC "-//W3C//DTD SVG 1.1//EN" "http://www.w3.org/Graphics/SVG/1.1/DTD/svg11.dtd">
<svg version="1.1" id="Layer_1" xmlns="http://www.w3.org/2000/svg" xmlns:xlink="http://www.w3.org/1999/xlink" x="0px" y="0px"
	 width="237.4px" height="136.3px" viewBox="0 0 237.4 136.3" style="enable-background:new 0 0 237.4 136.3;" xml:space="preserve"
	>
<style type="text/css">
<![CDATA[
	.st0{fill:#7DCFD6;}
	.st1{fill:#1E1E1E;}
	.st2{clip-path:url(#SVGID_2_);}
	.st3{clip-path:url(#SVGID_4_);}
	.st4{opacity:0.8;fill:#39C2DA;}
	.st5{fill:#93D0AA;}
	.st6{opacity:0.8;fill:#1E1E1E;}
]]>
</style>
<g>
	<polygon class="st6" points="216.8,115.7 216.8,136.3 234,136.3 237.4,136.3 237.4,115.7 	"/>
	<rect x="216.8" y="0" class="st6" width="20.6" height="20.6"/>
	<rect x="138.1" y="0.1" class="st6" width="20.6" height="20.6"/>
	<polygon class="st6" points="94.4,0 94.4,0 91.5,0 91.5,20.6 94.4,20.6 94.4,20.6 112.1,20.6 112.1,0 	"/>
	<polygon class="st6" points="0,0 0,20.6 4.7,20.6 4.7,20.6 20.6,20.6 20.6,0 	"/>
	<polygon class="st6" points="4.7,115.7 4.7,115.7 0,115.7 0,136.3 20.6,136.3 20.6,115.7 	"/>
	<polygon class="st1" points="216.8,115.7 176.7,68.1 216.8,20.6 216.8,0 200.3,0 144.6,66.9 144.6,69.4 200.3,136.3 216.8,136.3 	
		"/>
	<polyline class="st1" points="112.1,0 112.1,20.6 112.1,93.6 47.2,0 20.6,0 20.6,20.6 20.6,115.7 20.6,136.3 45.2,136.3 45.2,37.8 
		99.7,115.7 114.1,136.3 138.1,136.3 138.1,20.6 138.1,0.1 	"/>
</g>
</svg>
